<svg xmlns="http://www.w3.org/2000/svg">
  <symbol viewBox="0 0 47 56" id="apple-logo">
    <path d="M39.24 29.74c.01 2.41.75 4.77 2.13 6.79A12.67 12.67 0 0 0 47 41.06a29.8 29.8 0 0 1-4 7.96c-2.4 3.42-4.9 6.82-8.84 6.9-3.94.1-5.1-2.21-9.53-2.21-4.44 0-5.8 2.15-9.46 2.29-3.67.13-6.7-3.72-9.1-7.12-4.95-6.9-8.75-19.63-3.66-28.2 1.2-2.07 2.93-3.8 5.03-5.03a14.49 14.49 0 0 1 6.93-1.98c3.73-.07 7.25 2.43 9.53 2.43 2.28 0 6.56-3.01 11.06-2.57 2.08.08 4.12.62 5.95 1.58 1.84.96 3.41 2.32 4.61 3.98-.27.16-6.3 3.57-6.24 10.65h-.04Zm-7.26-20.8a12.07 12.07 0 0 0 3-8.94c-3.3.3-6.36 1.82-8.55 4.24-1.86 2.1-3.5 5.45-3.05 8.66 3.25.25 6.55-1.6 8.57-3.94" fill="#ffffff"/>
  </symbol>
  <symbol viewBox="0 0 43 47" id="android-logo">
    <path d="M34.89 14.06H8.1V33.2c0 .92.34 1.8.96 2.47a3.7 3.7 0 0 0 2.43 1.16v7.46c.04.73.37 1.42.92 1.93a2.99 2.99 0 0 0 4.05 0c.55-.5.88-1.2.92-1.93v-7.44h8.24v7.44c.04.73.37 1.42.92 1.93a2.99 2.99 0 0 0 4.05 0c.55-.5.88-1.2.92-1.93v-7.46a3.7 3.7 0 0 0 2.43-1.16c.63-.67.97-1.55.97-2.46V14.4l-.03-.34ZM2.95 15.74c.78 0 1.53.3 2.08.85.56.54.87 1.27.87 2.04v12.4a2.84 2.84 0 0 1-.86 2.05 2.95 2.95 0 0 1-2.09.85c-.78 0-1.53-.3-2.09-.85A2.87 2.87 0 0 1 0 31.03v-12.4a2.84 2.84 0 0 1 .87-2.04 2.95 2.95 0 0 1 2.08-.85ZM40.06 15.74c.78 0 1.53.3 2.08.85.55.54.86 1.27.86 2.04v12.4a2.84 2.84 0 0 1-.86 2.05 2.95 2.95 0 0 1-2.08.85c-.79 0-1.54-.3-2.1-.85a2.87 2.87 0 0 1-.86-2.05v-12.4a2.84 2.84 0 0 1 .87-2.04 2.95 2.95 0 0 1 2.09-.85ZM8.17 12.06h26.57a10.4 10.4 0 0 0-3.26-7.3L34.05.5a.3.3 0 0 0-.12-.46.32.32 0 0 0-.42.1L31.09 4.3A16.7 16.7 0 0 0 21.46.9a16.98 16.98 0 0 0-9.58 3.4L9.5.2a.32.32 0 0 0-.18-.16.33.33 0 0 0-.25 0 .31.31 0 0 0-.11.42l2.5 4.25a10.44 10.44 0 0 0-3.29 7.36Zm17.7-5.21c0-.4.17-.78.45-1.06a1.55 1.55 0 0 1 2.17 0 1.49 1.49 0 0 1 0 2.12 1.55 1.55 0 0 1-2.17 0 1.49 1.49 0 0 1-.45-1.06Zm-11.38 0c0-.4.16-.78.45-1.06a1.55 1.55 0 0 1 2.17 0 1.49 1.49 0 0 1 0 2.12 1.55 1.55 0 0 1-2.17 0 1.49 1.49 0 0 1-.45-1.06Z" fill="#a4c639"/>
  </symbol>
  <symbol viewBox="0 0 44 41" id="microsoft-logo">
    <path d="M20.9 19.52H0V0h20.9v19.52Z" fill="#F05423"/>
    <path d="M44 19.52H23.1V0H44v19.52Z" fill="#84C441"/>
    <path d="M20.9 41H0V21.48h20.9V41Z" fill="#2DABE2"/>
    <path d="M44 41H23.1V21.48H44V41Z" fill="#F9BC15"/>
  </symbol>
</svg>
